<svg width="352" height="112" viewBox="0 0 352 112" fill="none" xmlns="http://www.w3.org/2000/svg">
<path d="M59.2397 77.0986H67.5747L45.3879 99.2759H41.2204L0 58.0824V53.9126L41.2204 12.7191H45.3879L67.5797 34.8964H59.2397L43.3042 18.9713L6.25127 56L43.3042 93.0237L59.2397 77.0986Z" fill="#E8E8E8"/>
<path d="M105.457 36.6991H71.8266L69.3281 39.196V75.3008H74.3251V41.6929H99.4252L86.8777 54.2322V57.7628L104.422 75.3008H111.488L92.1745 56L107.226 40.9588L105.457 36.6991Z" fill="#E8E8E8"/>
<path d="M111.523 39.196V72.804L114.022 75.3008H147.652V70.3071H116.52V58.4969H130.837V53.5031H116.52V41.6929H147.652V36.6991H114.022L111.523 39.196Z" fill="#E8E8E8"/>
<path d="M213.493 36.6942V41.6879H199.177V75.3009H194.18V41.6879H159.915L154.918 36.6942H213.493Z" fill="#E8E8E8"/>
<path d="M253.994 21.0886H239.928L274.862 56L239.928 90.9113H253.994L288.928 56L253.994 21.0886Z" fill="#E8E8E8"/>
<path d="M330.898 14.0574V0L295.963 34.9114L261.029 0V14.0574L295.963 48.9688L330.898 14.0574Z" fill="#E8E8E8"/>
<path d="M337.929 90.9113H352.001L317.067 56L352.001 21.0886H337.929L303 56L337.929 90.9113Z" fill="#E8E8E8"/>
<path d="M261.029 97.9426V112L295.963 77.0886L330.898 112V97.9426L295.963 63.0312L261.029 97.9426Z" fill="#E8E8E8"/>
<path d="M251.425 70.3071H220.294V58.4969H234.61V53.5031H220.294V41.6879H251.425H256.422L251.425 36.6942H217.795L215.297 39.191V72.804L217.795 75.3009H251.425L256.422 70.3071H251.425Z" fill="#E8E8E8"/>
<path d="M191.615 75.3008H184.549L167.734 58.4919H156.306L156.276 53.4981H162.737L154.452 45.2184V75.5006H149.455V36.6991H152.988L191.615 75.3008Z" fill="#E8E8E8"/>
</svg>